<?xml version="1.0" ?><svg enable-background="new 0 0 64 64" height="64px" id="Layer_1" version="1.1" viewBox="0 0 64 64" width="64px" xml:space="preserve" xmlns="http://www.w3.org/2000/svg" xmlns:xlink="http://www.w3.org/1999/xlink"><circle cx="32" cy="32" fill="#C75C5C" r="32"/><g opacity="0.2"><path d="M50,48H18c-2.209,0-4-1.791-4-4V20c0-1.515,0.856-2.9,2.211-3.578c1.355-0.678,2.978-0.531,4.189,0.377   l32,24c1.377,1.033,1.939,2.832,1.395,4.465C53.25,46.899,51.722,48,50,48z M22,40h16L22,28V40z" fill="#231F20"/></g><g><path d="M50,46H18c-2.209,0-4-1.791-4-4V18c0-1.515,0.856-2.9,2.211-3.578c1.355-0.678,2.978-0.531,4.189,0.377   l32,24c1.377,1.033,1.939,2.832,1.395,4.465C53.25,44.899,51.722,46,50,46z M22,38h16L22,26V38z" fill="#F5CF87"/></g><g><path d="M21,41c-0.552,0-1,0.448-1,1v4h2v-4C22,41.448,21.552,41,21,41z" fill="#E0995E"/><path d="M26,43c-0.552,0-1,0.448-1,1v2h2v-2C27,43.448,26.552,43,26,43z" fill="#E0995E"/><path d="M31,41c-0.552,0-1,0.448-1,1v4h2v-4C32,41.448,31.552,41,31,41z" fill="#E0995E"/><path d="M36,43c-0.552,0-1,0.448-1,1v2h2v-2C37,43.448,36.552,43,36,43z" fill="#E0995E"/><path d="M41,41c-0.552,0-1,0.448-1,1v4h2v-4C42,41.448,41.552,41,41,41z" fill="#E0995E"/><path d="M47,44c0-0.552-0.448-1-1-1c-0.552,0-1,0.448-1,1v2h2V44z" fill="#E0995E"/></g></svg>