<?xml version="1.0" ?><svg height="512" preserveAspectRatio="xMidYMid" viewBox="0 0 512 512" width="512" xmlns="http://www.w3.org/2000/svg" xmlns:xlink="http://www.w3.org/1999/xlink"><defs><style>
      .cls-1 {
        fill: #fff;
      }

      .cls-2 {
        fill: #52a841;
      }

      .cls-2, .cls-3 {
        fill-rule: evenodd;
      }

      .cls-3 {
        fill: #000;
        opacity: 0.1;
      }
    </style></defs><circle class="cls-1" cx="256" cy="256" r="256"/><path class="cls-2" d="M256.000,512.000 C114.615,512.000 0.000,397.385 0.000,256.000 C0.000,114.615 114.615,0.000 256.000,0.000 C397.385,0.000 512.000,114.615 512.000,256.000 C512.000,397.385 397.385,512.000 256.000,512.000 ZM256.000,112.000 C177.576,112.000 114.000,175.451 114.000,253.721 C114.000,331.992 177.576,395.442 256.000,395.442 L256.000,443.000 C296.980,438.244 398.000,365.393 398.000,255.871 C398.000,177.600 334.424,112.000 256.000,112.000 ZM290.183,312.598 C285.961,313.302 286.021,309.870 286.021,309.870 L286.021,294.804 C286.021,294.804 286.003,291.695 288.362,291.209 C294.114,290.024 308.471,285.485 308.471,269.685 C301.373,269.914 269.978,269.102 269.978,269.102 C269.978,269.102 265.541,268.792 265.541,263.510 C265.541,251.572 265.541,223.234 265.541,210.613 C265.541,204.267 271.741,204.362 271.741,204.362 L324.519,204.362 C324.519,204.362 331.293,204.056 331.293,210.834 C331.293,220.822 331.293,241.828 331.293,270.054 C331.293,302.691 301.379,310.731 290.183,312.598 ZM199.389,311.777 C196.350,312.163 196.555,309.159 196.555,309.159 L196.555,294.783 C196.555,294.783 196.601,291.653 198.679,291.036 C204.309,289.363 219.191,283.562 219.191,268.976 C211.799,268.976 181.042,268.976 181.042,268.976 C181.042,268.976 174.998,269.236 174.998,263.565 C174.998,249.018 174.998,210.170 174.998,210.170 C174.998,210.170 174.787,204.362 180.377,204.362 C195.171,204.362 235.373,204.362 235.373,204.362 C235.373,204.362 240.749,204.313 240.749,210.392 C240.749,220.614 240.749,243.006 240.749,271.130 C240.749,303.988 209.146,310.538 199.389,311.777 Z"/><path class="cls-3" d="M436.999,75.012 C536.959,174.972 536.959,337.039 436.999,436.999 C337.039,536.959 174.972,536.959 75.012,436.999 "/></svg>