<?xml version="1.0" ?><svg height="32px" version="1.1" viewBox="0 0 32 32" width="32px" xmlns="http://www.w3.org/2000/svg" xmlns:sketch="http://www.bohemiancoding.com/sketch/ns" xmlns:xlink="http://www.w3.org/1999/xlink"><title/><desc/><defs/><g fill="none" fill-rule="evenodd" id="Page-1" stroke="none" stroke-width="1"><g fill="#157EFB" id="icon-66-document-file-numbers"><path d="M21,26 L21,28.0025781 C21,29.1090746 20.1057238,30 19.0025781,30 L3.99742191,30 C2.89092539,30 2,29.1012878 2,27.9926701 L2,5.00732994 C2,3.89833832 2.8992496,3 4.0085302,3 L14,3 L14,9.00189865 C14,10.1132936 14.8980806,11 16.0059191,11 L21,11 L21,13 L12.0068483,13 C10.3462119,13 9,14.3422643 9,15.9987856 L9,23.0012144 C9,24.6573979 10.3359915,26 12.0068483,26 L21,26 L21,26 Z M15,3 L15,8.99707067 C15,9.55097324 15.4509752,10 15.990778,10 L21,10 L15,3 L15,3 Z M11.9945615,14 C10.8929956,14 10,14.9001762 10,15.992017 L10,23.007983 C10,24.1081436 10.9023438,25 11.9945615,25 L29.0054385,25 C30.1070044,25 31,24.0998238 31,23.007983 L31,15.992017 C31,14.8918564 30.0976562,14 29.0054385,14 L11.9945615,14 L11.9945615,14 Z M13,18 L13,23 L12,23 L12,16 L13,16 L16,21 L16,16 L17,16 L17,23 L16,23 L13,18 L13,18 Z M22,16 L23,16 L23,20.9940809 C23,22.1134452 22.102384,23 20.9951185,23 L20.0048815,23 C18.8938998,23 18,22.1019194 18,20.9940809 L18,16 L19,16 L19,20.9970707 C19,21.5509732 19.4426603,22 19.9989566,22 L21.0010434,22 C21.5527519,22 22,21.5621186 22,20.9970707 L22,16 L22,16 L22,16 Z M26.5,19 L25,16 L24.5,16 L24,16 L24,23 L25,23 L25,18 L26,20 L26.5,20 L27,20 L28,18 L28,23 L29,23 L29,16 L28.5,16 L28,16 L26.5,19 L26.5,19 Z" id="document-file-numbers"/></g></g></svg>